<?xml version="1.0" encoding="utf-8"?>
<!-- Generator: Adobe Illustrator 24.0.3, SVG Export Plug-In . SVG Version: 6.00 Build 0)  -->
<svg version="1.1" id="Layer_1" xmlns="http://www.w3.org/2000/svg" xmlns:xlink="http://www.w3.org/1999/xlink" x="0px" y="0px"
	 viewBox="0 0 200 62.35" style="enable-background:new 0 0 200 62.35;" xml:space="preserve">
<style type="text/css">
	.st0{fill:#008ED3;}
	.st1{fill:#404041;}
</style>
<g>
	<g>
		<polygon class="st0" points="49.18,40.73 52.84,10.41 60.4,10.41 56.75,40.73 		"/>
		<polygon class="st0" points="53.09,7.3 54.09,0 61.83,0 60.83,7.3 		"/>
		<polygon class="st1" points="141.99,7.3 143,0 150.73,0 149.74,7.3 		"/>
		<path class="st1" d="M82.77,7.22l-4.13,33.51h-8.09l4.13-33.51H63.87L64.73,0h29.73L93.6,7.22H82.77z"/>
		<path class="st1" d="M91.21,27.93c-0.47,3.9,1.57,6.75,5.82,6.75c3.31,0,4.42-1.37,6.57-3.29l5.49,2.71
			c-3.49,4.92-7.42,6.98-12.9,6.98c-7.15,0-13.63-3.26-12.15-15.53c1.19-9.9,7.22-15.48,15.07-15.48c8.44,0,11.36,5.71,11.36,13.98
			c0,1.61-0.25,3.88-0.25,3.88H91.21z M103.05,19.49c-0.6-1.81-2.12-3.15-4.69-3.15c-2.56,0-4.41,1.34-5.44,3.15
			c-0.6,1.1-0.87,1.92-1.09,3.26h11.52C103.46,21.41,103.38,20.59,103.05,19.49z"/>
		<path class="st1" d="M126.84,40.73l-4.49-9.07l-6.62,9.07h-9.08l12.34-15.48l-8.27-14.84h9.07l4.08,8.67l6.22-8.67h9.08
			l-11.85,14.84l8.6,15.48H126.84z"/>
		<path class="st1" d="M137.91,40.73l3.65-30.32h7.57l-3.66,30.32H137.91z"/>
		<path class="st1" d="M161.55,41.07c-6.05,0-13.17-3.26-11.69-15.53c1.48-12.28,9.38-15.48,15.42-15.48
			c4.19,0,7.56,1.02,10.19,4.69l-6.4,4.51c-1.37-1.68-2.62-2.38-4.6-2.38c-1.8,0-3.27,0.64-4.54,1.98c-1.34,1.46-2.1,3.49-2.5,6.69
			c-0.38,3.2-0.11,5.29,0.88,6.74c0.95,1.34,2.26,1.98,4.07,1.98c1.98,0,3.4-0.7,5.17-2.39l5.11,4.48
			C169.72,39.86,165.74,41.07,161.55,41.07z"/>
		<path class="st1" d="M194.83,37.35c-2.1,1.98-5.4,3.72-9.87,3.72c-4.48,0-7.29-1.74-8.92-3.72c-2.39-2.85-2.68-6.28-2.01-11.81
			c0.66-5.47,1.77-8.91,4.85-11.75c2.1-1.98,5.33-3.72,9.82-3.72c4.48,0,7.35,1.75,8.98,3.72c2.39,2.85,2.68,6.29,2.02,11.75
			C199.03,31.07,197.91,34.5,194.83,37.35z M191.26,18.21c-0.77-0.87-1.87-1.34-3.39-1.34c-1.51,0-2.68,0.46-3.65,1.34
			c-1.76,1.57-2.25,4.19-2.63,7.33c-0.38,3.14-0.53,5.82,0.85,7.39c0.77,0.87,1.82,1.34,3.34,1.34c1.51,0,2.73-0.46,3.71-1.34
			c1.76-1.57,2.26-4.25,2.64-7.39C192.51,22.4,192.65,19.78,191.26,18.21z"/>
		<path class="st0" d="M0,6.06c0,0,0.42,11.09,4.39,32.6h18.1c0,0-1.71-5.91-1.71-6.92c0,0-13.04-19.15-15.28-21.8
			C3.26,7.28,0.51,4.73,0,6.06z"/>
		<path class="st0" d="M0.51,4.43c0,0,1.02-1.74,7.54,7.23c6.52,8.97,18.44,26.08,21.6,30.36c3.16,4.28,10.85,13.83,12.3,15.67
			c1.45,1.85,2.77,3.48,5.73,3.89c2.96,0.41,8.94,1.67,17.56-0.34c0,0-3.5-1.49-7.58-5.98c-4.07-4.48-12.43-15.48-19.97-26.28
			C30.16,18.18,20.58,5.75,20.07,5.04C19.56,4.33,18.64,3,16.61,2.6C14.57,2.19,5.4,1.17,0.51,4.43z"/>
		<path class="st0" d="M58.48,54.85c0,0,4.69,4.89,8.25,5.81c0,0,7.22-1.32,14.92-16.75l-14.81-0.06
			C66.84,43.86,63.27,50.27,58.48,54.85z"/>
	</g>
</g>
</svg>
